HIERARCHY
ROOT Hips
{
	OFFSET	0.00	0.00	0.00
	CHANNELS 6 Xposition Yposition Zposition Zrotation Xrotation Yrotation
	JOINT LeftUpLeg
	{
		OFFSET	 0.126116	-0.014019	-0.065224
		CHANNELS 3 Zrotation Xrotation Yrotation
		JOINT LeftLeg
		{
			OFFSET	 0.000000	 0.000000	 0.569914
			CHANNELS 3 Zrotation Xrotation Yrotation
			JOINT LeftFoot
			{
				OFFSET	 0.000000	 0.000000	 0.544423
				CHANNELS 3 Zrotation Xrotation Yrotation
				JOINT LeftToeBase
				{
					OFFSET	 0.000000	 0.000000	 0.207117
					CHANNELS 3 Zrotation Xrotation Yrotation
					End Site
					{
						OFFSET	 0.000000	 0.000000	 0.207117
					}
				}
			}
		}
	}
	JOINT RightUpLeg
	{
		OFFSET	-0.124023	-0.008373	-0.065224
		CHANNELS 3 Zrotation Xrotation Yrotation
		JOINT RightLeg
		{
			OFFSET	 0.000000	 0.000000	 0.570047
			CHANNELS 3 Zrotation Xrotation Yrotation
			JOINT RightFoot
			{
				OFFSET	 0.000000	 0.000000	 0.544354
				CHANNELS 3 Zrotation Xrotation Yrotation
				JOINT RightToeBase
				{
					OFFSET	 0.000000	 0.000000	 0.207540
					CHANNELS 3 Zrotation Xrotation Yrotation
					End Site
					{
						OFFSET	 0.000000	 0.000000	 0.207540
					}
				}
			}
		}
	}
	JOINT Spine
	{
		OFFSET	 0.000184	-0.007763	 0.117403
		CHANNELS 3 Zrotation Xrotation Yrotation
		JOINT Spine1
		{
			OFFSET	 0.000000	 0.000000	 0.137269
			CHANNELS 3 Zrotation Xrotation Yrotation
			JOINT Spine2
			{
				OFFSET	 0.000000	 0.000000	 0.156879
				CHANNELS 3 Zrotation Xrotation Yrotation
				JOINT LeftShoulder
				{
					OFFSET	 0.080501	-0.002496	 0.160144
					CHANNELS 3 Zrotation Xrotation Yrotation
					JOINT LeftArm
					{
						OFFSET	 0.000000	 0.000000	 0.164363
						CHANNELS 3 Zrotation Xrotation Yrotation
						JOINT LeftForeArm
						{
							OFFSET	 0.000000	 0.000000	 0.364576
							CHANNELS 3 Zrotation Xrotation Yrotation
							JOINT LeftHand
							{
								OFFSET	 0.000000	 0.000000	 0.360812
								CHANNELS 3 Zrotation Xrotation Yrotation
								JOINT LeftHandIndex1
								{
									OFFSET	 0.000000	 0.000000	 0.086006
									CHANNELS 3 Zrotation Xrotation Yrotation
									JOINT LeftHandIndex2
									{
										OFFSET	 0.000000	 0.000000	 0.047236
										CHANNELS 3 Zrotation Xrotation Yrotation
										JOINT LeftHandIndex3
										{
											OFFSET	-0.004284	-0.000551	 0.038166
											CHANNELS 3 Zrotation Xrotation Yrotation
											End Site
											{
												OFFSET	-0.004284	-0.000551	 0.038166
											}
										}
									}
								}
							}
						}
					}
				}
				JOINT Neck
				{
					OFFSET	 0.000000	 0.000000	 0.176489
					CHANNELS 3 Zrotation Xrotation Yrotation
					JOINT Head
					{
						OFFSET	 0.000000	-0.001747	 0.077940
						CHANNELS 3 Zrotation Xrotation Yrotation
						End Site
						{
							OFFSET	 0.000000	-0.001747	 0.077940
						}
					}
				}
				JOINT RightShoulder
				{
					OFFSET	-0.080363	 0.000306	 0.159706
					CHANNELS 3 Zrotation Xrotation Yrotation
					JOINT RightArm
					{
						OFFSET	 0.000000	 0.000000	 0.164196
						CHANNELS 3 Zrotation Xrotation Yrotation
						JOINT RightForeArm
						{
							OFFSET	 0.000000	 0.000000	 0.365611
							CHANNELS 3 Zrotation Xrotation Yrotation
							JOINT RightHand
							{
								OFFSET	 0.000000	 0.000000	 0.360648
								CHANNELS 3 Zrotation Xrotation Yrotation
								JOINT RightHandIndex1
								{
									OFFSET	 0.000000	 0.000000	 0.069977
									CHANNELS 3 Zrotation Xrotation Yrotation
									JOINT RightHandIndex2
									{
										OFFSET	 0.000000	 0.000000	 0.052305
										CHANNELS 3 Zrotation Xrotation Yrotation
										JOINT RightHandIndex3
										{
											OFFSET	 0.009002	-0.000782	 0.042196
											CHANNELS 3 Zrotation Xrotation Yrotation
											End Site
											{
												OFFSET	 0.009002	-0.000782	 0.042196
											}
										}
									}
								}
							}
						}
					}
				}
			}
		}
	}
}
MOTION
Frames:    9
Frame Time: 0.03333334
 6.166188	 7.522697	-1.232292	-77.246310	 0.696060	 3.694888	 5.040080	-4.079772	 176.495400	-11.171540	-33.869130	-5.140324	 171.978800	 86.455020	 179.424700	-2.376933	 30.282610	-0.040059	 1.766000	-12.710600	 178.985000	 3.680834	-47.725920	 5.752941	-175.569200	 81.955120	-178.480400	 2.403637	 22.164850	-0.129781	-0.885396	 0.516123	-1.876342	-0.402610	-2.352035	-0.205888	-0.077684	-4.453541	-0.008135	-91.809810	 77.598380	 179.142200	 36.662690	 69.861020	-39.647500	-8.037663	-4.012042	-20.116610	 5.862830	-2.213567	-5.336043	-3.812334	 37.924440	-2.927599	-2.450526	 36.184240	 0.754587	-1.378229	 35.397820	-2.634230	 0.484960	 6.011845	-3.219815	 0.247826	-13.324480	-1.588677	 89.764970	 79.275320	-179.641400	-36.338120	 70.392980	 39.072220	 4.278016	-7.778157	 30.505660	-11.339390	-3.196613	 9.596313	 6.437017	 35.671460	-0.771858	 2.830251	 35.756010	-7.813440	-2.350882	 35.473990	 5.254307
 6.179433	 7.521562	-1.233472	-77.000730	 0.822581	 3.722764	 5.014768	-4.484465	 176.588300	-10.873680	-34.440860	-5.060507	 172.046900	 85.956690	 179.621800	-2.374918	 30.654740	-0.048344	 1.926090	-13.200130	 178.989500	 4.139751	-48.797050	 6.337052	-176.190700	 81.315270	-177.584400	 2.402955	 22.539170	-0.122209	-1.004474	 0.624019	-1.893895	-0.448857	-2.397335	-0.287640	-0.185112	-4.513564	-0.019485	-91.805780	 77.666900	 179.186000	 36.600940	 69.664070	-39.749950	-8.257623	-4.004710	-20.822040	 5.668327	-2.198850	-5.340665	-3.812334	 37.924440	-2.927599	-2.450526	 36.184240	 0.754587	-1.378229	 35.397820	-2.634230	 0.394754	 5.534145	-3.488392	 0.168589	-12.968690	-1.372391	 89.765140	 79.202510	-179.617500	-36.341960	 70.525180	 39.302100	 4.313087	-7.667614	 29.817730	-11.513720	-3.202000	 9.593354	 6.437017	 35.671460	-0.771858	 2.830251	 35.756010	-7.813440	-2.350882	 35.473990	 5.254307
 6.179856	 7.517476	-1.234372	-77.145900	 0.842958	 3.559102	 5.222103	-4.707316	 176.845500	-10.795410	-34.801320	-4.916922	 172.503500	 85.654000	 179.466000	-2.374125	 30.798590	-0.051550	 2.203207	-14.265350	 179.217600	 4.539011	-50.771690	 7.108156	-176.257000	 81.132320	-177.316800	 2.400071	 23.864270	-0.095196	-1.161182	 1.002441	-1.648986	-0.612966	-2.451328	-0.304290	-0.428372	-4.591940	-0.045379	-91.798510	 77.817340	 179.259500	 36.682760	 69.427040	-40.189000	-8.409319	-3.955972	-21.093970	 5.552095	-2.191031	-5.343173	-3.812334	 37.924440	-2.927599	-2.450526	 36.184240	 0.754587	-1.378229	 35.397820	-2.634230	 0.107400	 5.583486	-3.154235	-0.106904	-13.187050	-1.909781	 89.768710	 79.044080	-179.638400	-36.499630	 70.596640	 39.788460	 4.400607	-7.593284	 29.449200	-11.644350	-3.205498	 9.591464	 6.437017	 35.671460	-0.771858	 2.830251	 35.756010	-7.813440	-2.350882	 35.473990	 5.254307
 6.180561	 7.510938	-1.235852	-77.574800	 0.887515	 2.929846	 5.937816	-4.773136	 177.524800	-11.093510	-35.005030	-4.618817	 174.973300	 85.398960	 177.515500	-2.372079	 31.159070	-0.059637	 2.352886	-17.219930	-179.937700	 5.819368	-55.684720	 8.939885	-175.804200	 81.771400	-177.587300	 2.383991	 28.539010	 0.003252	-1.308261	 1.683835	-0.897367	-0.718789	-2.536376	-0.169571	-0.557512	-4.836602	-0.060242	-91.788510	 78.103120	 179.324200	 36.863570	 69.010480	-41.184560	-8.636699	-3.846587	-21.167350	 5.437395	-2.190135	-5.344135	-3.812334	 37.924440	-2.927599	-2.450526	 36.184240	 0.754587	-1.378229	 35.397820	-2.634230	-0.017241	 5.371610	-3.219577	-0.206884	-13.483090	-2.082694	 89.774990	 78.746220	-179.699100	-36.924390	 70.647680	 40.735760	 4.606437	-7.458097	 29.117910	-11.733920	-3.208185	 9.589903	 6.437017	 35.671460	-0.771858	 2.830251	 35.756010	-7.813440	-2.350882	 35.473990	 5.254307
 6.181177	 7.503313	-1.238136	-78.298430	 0.926630	 1.994271	 6.769585	-4.403487	 178.644500	-11.701710	-34.693440	-4.297607	 176.499400	 85.384460	 176.386700	-2.369797	 31.548140	-0.068411	 2.806511	-22.231840	-178.702100	 9.255378	-63.479790	 13.330900	-173.217300	 84.695590	-179.836100	 2.347263	 34.615140	 0.141282	-1.422125	 2.410169	 0.132411	-0.744907	-2.584310	 0.126719	-0.608839	-5.143947	-0.067407	-91.780020	 78.386670	 179.371000	 36.944150	 68.495880	-42.337810	-8.825761	-3.716810	-20.921780	 5.431247	-2.200405	-5.341313	-3.812334	 37.924440	-2.927599	-2.450526	 36.184240	 0.754587	-1.378229	 35.397820	-2.634230	-0.023429	 5.305877	-3.380971	-0.230645	-14.062510	-2.200762	 89.779200	 78.454550	-179.729900	-37.547980	 70.646400	 41.858650	 4.840558	-7.317837	 29.020440	-11.767150	-3.208954	 9.589528	 6.437017	 35.671460	-0.771858	 2.830251	 35.756010	-7.813440	-2.350882	 35.473990	 5.254307
 6.180058	 7.495451	-1.240968	-79.096960	 0.987454	 1.110358	 7.828660	-3.628555	 179.657300	-12.378910	-33.817690	-3.821589	 178.307200	 85.514540	 175.074000	-2.363455	 32.565290	-0.091618	 3.211107	-28.460040	-177.780000	 19.262170	-71.208530	 24.013800	-164.970900	 89.535220	 172.888200	 2.381287	 29.122300	 0.015943	-1.652604	 2.967382	 1.091481	-0.769163	-2.529392	 0.475583	-0.603731	-5.435117	-0.068364	-91.774730	 78.575620	 179.324300	 36.714260	 67.876000	-43.171930	-9.047713	-3.526889	-20.438570	 5.386097	-2.212512	-5.338642	-3.812334	 37.924440	-2.927599	-2.450526	 36.184240	 0.754587	-1.378229	 35.397820	-2.634230	 0.020416	 5.307146	-3.572039	-0.171380	-14.686310	-2.213075	 89.781390	 78.267840	-179.734200	-38.447150	 70.589050	 43.242120	 4.979173	-7.196479	 29.015530	-11.852450	-3.190745	 9.598405	 6.437017	 35.671460	-0.771858	 2.830251	 35.756010	-7.813440	-2.350882	 35.473990	 5.254307
 6.175629	 7.487440	-1.242960	-79.475330	 1.028213	 0.579384	 8.670332	-2.878123	-179.896500	-12.644240	-32.624740	-3.281623	-179.907000	 85.794670	 173.839000	-2.353454	 34.010560	-0.125303	 2.912458	-34.301660	-177.593500	 31.421660	-74.744560	 35.973600	-137.465400	 89.334410	 146.690600	 2.384438	 28.438120	 0.001067	-2.339107	 3.560908	 1.718596	-1.015476	-2.660379	 0.601524	-0.538638	-5.734385	-0.062387	-91.766300	 78.795230	 179.173700	 36.836490	 67.267470	-44.281990	-9.249280	-3.304023	-19.903080	 5.322319	-2.224782	-5.336254	-3.812334	 37.924440	-2.927599	-2.450526	 36.184240	 0.754587	-1.378229	 35.397820	-2.634230	 0.024220	 5.091996	-3.944960	 0.128632	-15.072820	-1.624178	 89.782190	 78.043400	-179.990800	-38.835670	 70.618900	 43.707740	 5.079775	-7.074245	 28.973930	-12.028410	-3.191701	 9.597627	 6.437017	 35.671460	-0.771858	 2.830251	 35.756010	-7.813440	-2.350882	 35.473990	 5.254307
 6.166124	 7.478662	-1.242614	-79.650840	 1.206769	 0.808018	 8.335582	-1.307111	-179.742600	-12.765480	-30.699130	-3.226584	 179.191800	 86.070960	 174.321100	-2.352405	 34.153340	-0.128679	 2.294210	-38.027750	-178.549800	 29.345500	-73.479100	 33.119450	-162.684700	 87.805450	 172.099300	 2.371617	 30.972190	 0.056920	-3.177499	 3.916178	 1.506991	-1.255999	-2.626087	 0.437822	-0.527453	-5.892551	-0.061813	-91.762520	 78.834770	 179.002400	 37.625160	 66.862980	-46.252510	-9.400862	-3.145428	-19.405800	 5.466224	-2.243825	-5.330510	-3.812334	 37.924440	-2.927599	-2.450526	 36.184240	 0.754587	-1.378229	 35.397820	-2.634230	-0.061840	 4.839022	-4.084227	 0.317013	-15.144400	-1.032161	 89.780920	 78.008540	 179.853700	-38.603000	 70.815040	 43.234420	 5.356347	-6.871552	 28.789360	-12.148020	-3.195043	 9.595873	 6.437017	 35.671460	-0.771858	 2.830251	 35.756010	-7.813440	-2.350882	 35.473990	 5.254307
 6.153436	 7.470122	-1.240466	-80.010950	 1.421908	 1.057196	 7.745619	 0.833136	-179.380400	-12.808260	-27.582490	-3.027403	 177.051700	 86.739070	 175.879700	-2.357750	 33.410200	-0.111213	 2.208594	-40.289970	-179.495100	 19.992980	-68.835780	 23.209640	-170.638700	 85.799560	 179.588100	 2.362778	 32.425830	 0.089954	-3.863835	 4.435389	 1.377731	-1.408086	-2.613934	 0.231019	-0.669362	-5.929948	-0.078661	-91.757520	 78.967330	 179.052700	 38.872070	 66.566670	-48.558250	-9.911141	-2.932392	-19.594510	 5.251712	-2.248677	-5.330670	-3.812334	 37.924440	-2.927599	-2.450526	 36.184240	 0.754587	-1.378229	 35.397820	-2.634230	-0.262507	 4.718884	-3.888317	 0.176556	-15.108320	-1.239780	 89.779090	 77.863370	 179.788800	-37.660180	 71.065570	 41.788280	 5.710960	-6.604975	 28.422250	-12.259550	-3.198236	 9.594097	 6.437017	 35.671460	-0.771858	 2.830251	 35.756010	-7.813440	-2.350882	 35.473990	 5.254307
